<?xml version="1.0" encoding="UTF-8" standalone="no"?>
<!-- Generator: Adobe Illustrator 19.0.0, SVG Export Plug-In . SVG Version: 6.00 Build 0)  -->

<svg
   xmlns:dc="http://purl.org/dc/elements/1.1/"
   xmlns:cc="http://creativecommons.org/ns#"
   xmlns:rdf="http://www.w3.org/1999/02/22-rdf-syntax-ns#"
   xmlns:svg="http://www.w3.org/2000/svg"
   xmlns="http://www.w3.org/2000/svg"
   xmlns:sodipodi="http://sodipodi.sourceforge.net/DTD/sodipodi-0.dtd"
   xmlns:inkscape="http://www.inkscape.org/namespaces/inkscape"
   version="1.1"
   id="Capa_1"
   x="0px"
   y="0px"
   viewBox="0 0 9.2270583 13.525692"
   xml:space="preserve"
   sodipodi:docname="arrow-up.svg"
   width="9.2270584"
   height="13.525694"
   inkscape:version="0.92.4 (5da689c313, 2019-01-14)"><metadata
   id="metadata43"><rdf:RDF><cc:Work
       rdf:about=""><dc:format>image/svg+xml</dc:format><dc:type
         rdf:resource="http://purl.org/dc/dcmitype/StillImage" /><dc:title /></cc:Work></rdf:RDF></metadata><defs
   id="defs41" /><sodipodi:namedview
   pagecolor="#ffffff"
   bordercolor="#666666"
   borderopacity="1"
   objecttolerance="10"
   gridtolerance="10"
   guidetolerance="10"
   inkscape:pageopacity="0"
   inkscape:pageshadow="2"
   inkscape:window-width="1366"
   inkscape:window-height="705"
   id="namedview39"
   showgrid="false"
   inkscape:zoom="15.644752"
   inkscape:cx="-2.8280711"
   inkscape:cy="8.0648516"
   inkscape:window-x="-8"
   inkscape:window-y="-8"
   inkscape:window-maximized="1"
   inkscape:current-layer="Capa_1" />

<g
   id="g8"
   transform="translate(-482.42371,-129.05412)">
</g>
<g
   id="g10"
   transform="translate(-482.42371,-129.05412)">
</g>
<g
   id="g12"
   transform="translate(-482.42371,-129.05412)">
</g>
<g
   id="g14"
   transform="translate(-482.42371,-129.05412)">
</g>
<g
   id="g16"
   transform="translate(-482.42371,-129.05412)">
</g>
<g
   id="g18"
   transform="translate(-482.42371,-129.05412)">
</g>
<g
   id="g20"
   transform="translate(-482.42371,-129.05412)">
</g>
<g
   id="g22"
   transform="translate(-482.42371,-129.05412)">
</g>
<g
   id="g24"
   transform="translate(-482.42371,-129.05412)">
</g>
<g
   id="g26"
   transform="translate(-482.42371,-129.05412)">
</g>
<g
   id="g28"
   transform="translate(-482.42371,-129.05412)">
</g>
<g
   id="g30"
   transform="translate(-482.42371,-129.05412)">
</g>
<g
   id="g32"
   transform="translate(-482.42371,-129.05412)">
</g>
<g
   id="g34"
   transform="translate(-482.42371,-129.05412)">
</g>
<g
   id="g36"
   transform="translate(-482.42371,-129.05412)">
</g>
<g
   id="g1041"
   transform="matrix(0,0.02405647,-0.02405647,0,9.9930554,6.13106e-6)"><g
     id="g984">
	<g
   id="g982">
		<path
   id="path980"
   d="m 535.36592,192.229 c -1.83,-0.297 -3.682,-0.434 -5.535,-0.41 H 99.305 l 6.88,-3.2 c 6.725,-3.183 12.843,-7.515 18.08,-12.8 l 88.48,-88.48 c 11.653,-11.124 13.611,-29.019 4.64,-42.4 -10.441,-14.259 -30.464,-17.355 -44.724,-6.914 -1.152,0.844 -2.247,1.764 -3.276,2.754 l -160,160 C -3.119,213.269 -3.13,233.53 9.36,246.034 l 0.025,0.025 160,160 c 12.514,12.479 32.775,12.451 45.255,-0.063 0.982,-0.985 1.899,-2.033 2.745,-3.137 8.971,-13.381 7.013,-31.276 -4.64,-42.4 l -88.32,-88.64 c -4.695,-4.7 -10.093,-8.641 -16,-11.68 l -9.6,-4.32 h 429.24492 c 16.347,0.607 30.689,-10.812 33.76,-26.88 2.829,-17.445 -9.019,-33.88 -26.464,-36.71 z"
   inkscape:connector-curvature="0"
   sodipodi:nodetypes="cccccccccccccccccccccc" />
	</g>
</g><g
     id="g986">
</g><g
     id="g988">
</g><g
     id="g990">
</g><g
     id="g992">
</g><g
     id="g994">
</g><g
     id="g996">
</g><g
     id="g998">
</g><g
     id="g1000">
</g><g
     id="g1002">
</g><g
     id="g1004">
</g><g
     id="g1006">
</g><g
     id="g1008">
</g><g
     id="g1010">
</g><g
     id="g1012">
</g><g
     id="g1014">
</g></g></svg>