<?xml version="1.0" encoding="UTF-8" standalone="no"?>
<!-- Generator: Adobe Illustrator 24.2.0, SVG Export Plug-In . SVG Version: 6.00 Build 0)  -->

<svg
   xmlns:dc="http://purl.org/dc/elements/1.1/"
   xmlns:cc="http://creativecommons.org/ns#"
   xmlns:rdf="http://www.w3.org/1999/02/22-rdf-syntax-ns#"
   xmlns:svg="http://www.w3.org/2000/svg"
   xmlns="http://www.w3.org/2000/svg"
   xmlns:sodipodi="http://sodipodi.sourceforge.net/DTD/sodipodi-0.dtd"
   xmlns:inkscape="http://www.inkscape.org/namespaces/inkscape"
   version="1.1"
   id="Layer_1"
   x="0px"
   y="0px"
   viewBox="0 0 557 539"
   style="enable-background:new 0 0 557 539;"
   xml:space="preserve"
   sodipodi:docname="banner.svg"
   inkscape:version="0.92.4 (5da689c313, 2019-01-14)"><metadata
   id="metadata19"><rdf:RDF><cc:Work
       rdf:about=""><dc:format>image/svg+xml</dc:format><dc:type
         rdf:resource="http://purl.org/dc/dcmitype/StillImage" /></cc:Work></rdf:RDF></metadata><defs
   id="defs17" /><sodipodi:namedview
   pagecolor="#ffffff"
   bordercolor="#666666"
   borderopacity="1"
   objecttolerance="10"
   gridtolerance="10"
   guidetolerance="10"
   inkscape:pageopacity="0"
   inkscape:pageshadow="2"
   inkscape:window-width="1366"
   inkscape:window-height="705"
   id="namedview15"
   showgrid="false"
   inkscape:zoom="0.43784787"
   inkscape:cx="278.5"
   inkscape:cy="269.5"
   inkscape:window-x="-8"
   inkscape:window-y="-8"
   inkscape:window-maximized="1"
   inkscape:current-layer="Layer_1" />
<style
   type="text/css"
   id="style2">
	.st0{opacity:0.8;fill:#FEFEFE;}
	.st1{opacity:0.8;fill:#EDDA5E;}
	.st2{opacity:0.8;fill:#B585C9;}
	.st3{opacity:0.8;fill:#D195AE;}
</style>


<path
   class="st1"
   d="M315.98,534.91c-0.08-0.15-0.13-0.41-0.23-0.43c-17.13-3.07-28.12-15.75-40.47-26.13  c-40.51-34.08-80.86-68.35-121.24-102.58c-43.3-36.71-86.56-73.48-129.84-110.21c-2.2-1.86-4.35-3.7-4.25-6.94  c14.92,7.05,28.89,15.85,43.35,23.75c23.52,12.85,46.78,26.19,70.17,39.29c40.67,22.79,81.34,45.57,122.02,68.34  c28.77,16.1,57.45,32.35,86.35,48.22c17.39,9.55,38.88,4.41,49.79-12.51c8.65-13.41,15.93-27.7,23.74-41.64  c34.9-62.33,69.76-124.67,104.66-187c0.81-1.45,1.82-2.78,2.73-4.17c6,5,12.23,9.76,17.96,15.05c14.31,13.19,16.22,35.63,3.86,51.25  c-11.14,14.08-23.05,27.56-34.67,41.27c-28.18,33.26-56.38,66.5-84.57,99.75c-24.85,29.32-49.74,58.6-74.5,87.99  c-6.45,7.66-14.11,13.06-24.04,15c-1.09,0.21-2.36,0.35-2.82,1.71C321.31,534.91,318.65,534.91,315.98,534.91z"
   id="path8" />
<path
   class="st2"
   d="M363.96,3.08c10.74,4.41,21.94,7.48,32.92,11.2c8.49,2.87,17.04,5.55,25.54,8.4  c11.46,3.85,15.89,12.18,12.34,23.73c-3.47,11.26-7.29,22.41-10.95,33.61c-16.7-9.27-33.42-18.5-50.09-27.81  c-23.65-13.21-47.3-26.42-70.88-39.76c-5.33-3.02-11.1-5.33-15.84-9.37C312.65,3.08,338.31,3.08,363.96,3.08z"
   id="path10" />
<path
   class="st3"
   d="M526.04,137.69c-16.12-9.69-32.77-18.5-49.17-27.73c-17.7-9.96-35.38-19.96-53.07-29.95  c-16.7-9.27-33.42-18.5-50.09-27.81c-23.65-13.21-47.3-26.42-70.88-39.76c-5.33-3.02-11.1-5.33-15.84-9.37c-24.66,0-49.31,0-73.97,0  c-69.64,0-139.28,0-208.92,0c0,13.66,0,27.32,0,40.99c0,78.31,0,156.62,0,234.92c5.62,2.64,11.42,5,15.85,9.62  c14.92,7.05,28.89,15.85,43.35,23.75c23.52,12.85,46.78,26.19,70.17,39.29c40.67,22.79,81.34,45.57,122.02,68.34  c28.77,16.1,57.45,32.35,86.35,48.22c17.39,9.55,38.88,4.41,49.79-12.51c8.65-13.41,15.93-27.7,23.74-41.64  c34.9-62.33,69.76-124.67,104.66-187c0.81-1.45,1.82-2.78,2.73-4.17c1.69-7.29,6.55-13.01,9.78-19.53  c2.29-4.62,5.12-8.96,7.54-13.52C550.32,170.48,544.83,148.98,526.04,137.69z"
   id="path12" />
</svg>